<svg xmlns="http://www.w3.org/2000/svg" viewBox="0 0 512 512">
  <defs>
    <linearGradient id="bgGradient" x1="80" y1="48" x2="432" y2="472" gradientUnits="userSpaceOnUse">
      <stop offset="0" stop-color="#786BFF"/>
      <stop offset="0.45" stop-color="#8B56F6"/>
      <stop offset="1" stop-color="#4DDCFF"/>
    </linearGradient>
    <radialGradient id="bgHighlight" cx="256" cy="242" r="390" gradientUnits="userSpaceOnUse">
      <stop offset="0" stop-color="#E3D8FF" stop-opacity="0.78"/>
      <stop offset="0.42" stop-color="#B792FF" stop-opacity="0.46"/>
      <stop offset="0.74" stop-color="#8278FF" stop-opacity="0.18"/>
      <stop offset="1" stop-color="#4DDCFF" stop-opacity="0"/>
    </radialGradient>
    <linearGradient id="arrowGradient" x1="168" y1="96" x2="344" y2="416" gradientUnits="userSpaceOnUse">
      <stop offset="0" stop-color="#9CF0FF"/>
      <stop offset="0.55" stop-color="#5FE5FF"/>
      <stop offset="1" stop-color="#D9C7FF"/>
    </linearGradient>
  </defs>

  <rect x="28" y="28" width="456" height="456" rx="106" fill="#4F36B9" opacity="0.2"/>
  <rect x="36" y="28" width="440" height="456" rx="104" fill="url(#bgGradient)"/>
  <rect x="36" y="28" width="440" height="456" rx="104" fill="url(#bgHighlight)"/>

  <g fill="none" stroke="url(#arrowGradient)" stroke-width="38" stroke-linecap="round" stroke-linejoin="round">
    <g>
      <path d="M256 166V48"/>
      <path d="M204 100L256 48L308 100"/>
    </g>
    <g transform="rotate(60 256 256)">
      <path d="M256 166V48"/>
      <path d="M204 100L256 48L308 100"/>
    </g>
    <g transform="rotate(120 256 256)">
      <path d="M256 166V48"/>
      <path d="M204 100L256 48L308 100"/>
    </g>
    <g transform="rotate(180 256 256)">
      <path d="M256 166V48"/>
      <path d="M204 100L256 48L308 100"/>
    </g>
    <g transform="rotate(240 256 256)">
      <path d="M256 166V48"/>
      <path d="M204 100L256 48L308 100"/>
    </g>
    <g transform="rotate(300 256 256)">
      <path d="M256 166V48"/>
      <path d="M204 100L256 48L308 100"/>
    </g>
  </g>

  <circle cx="256" cy="256" r="112" fill="url(#bgGradient)"/>
  <circle cx="256" cy="256" r="112" fill="url(#bgHighlight)"/>
  <circle cx="256" cy="256" r="112" fill="none" stroke="#8FEFFF" stroke-width="24"/>
  <g fill="none" stroke="#FFFFFF" stroke-width="34" stroke-linecap="round" stroke-linejoin="round">
    <path d="M194 216L246 256L194 296"/>
    <path d="M270 296H318"/>
  </g>
</svg>
